# xmcd
# Copyright (C) 1995-1998 Ti Kan
#
# Track frame offsets:
#       150
#       10994
#       30816
#       51102
#       69168
#       85185
#       100123
#       116936
#       137164
#       159796
#       175845
#       200618
#       218860
#
# Disc length: 3161 seconds
#
# Revision: 0
# Processed by: cddbd v1.5.2PL0 Copyright (c) Steve Scherf et al.
# Submitted via: CD-Transfer v1.0
#
DISCID=a40c570d
DTITLE=Propaganda Dei - 
DYEAR=10
DGENRE=
TTITLE0=Potêga
TTITLE1=Serce
TTITLE2=Pustynia
TTITLE3=Wojownicy
TTITLE4=Dziêki Ci
TTITLE5=Wa¿ne
TTITLE6=Nigdy
TTITLE7=Pragnê
TTITLE8=Jednorazowe
TTITLE9=Powstañ
TTITLE10=On Daje Si³ê
TTITLE11=Dok¹d Idziesz
TTITLE12=Z Tob¹
EXTD=
EXTT0=
EXTT1=
EXTT2=
EXTT3=
EXTT4=
EXTT5=
EXTT6=
EXTT7=
EXTT8=
EXTT9=
EXTT10=
EXTT11=
EXTT12=
PLAYORDER=
